<svg width="1440" height="636" viewBox="0 0 1440 636" fill="none" xmlns="http://www.w3.org/2000/svg">
<g clip-path="url(#clip0_1433_5207)">
<rect width="1440" height="636" fill="#F79A1F"/>
<path d="M1053.98 74.4004C1264.99 84.5869 1358.65 45.5645 1440 0L1440 636H0V103.758C44.3067 81.3623 133.106 72.7075 276.922 141.533C474.717 236.192 545.254 201.216 606.673 170.76C618.216 165.037 629.436 159.474 641.118 154.96C652.516 150.556 664.433 145.313 677.334 139.637C748.014 108.54 848.19 64.4658 1053.98 74.4004Z" fill="#FF8000"/>
<path d="M1055.3 344.271C1029.16 286.886 977.618 292.828 955.112 302.971C913.295 329.055 917.361 371.804 924.62 389.918C973.988 491.355 1076.21 700.315 1090.15 724.66C1107.57 755.091 1124.99 772.48 1177.27 776.827C1219.08 780.305 1249.87 730.456 1260.03 705.097C1297.78 626.845 1375.03 466.43 1382 450.78C1390.71 431.217 1451.69 335.576 1382 302.971C1326.24 276.887 1293.42 313.84 1283.99 335.576C1258.58 389.193 1206.45 499.904 1201.22 513.816C1194.69 531.205 1179.44 539.899 1164.2 537.726C1152 535.987 1141.69 521.061 1138.06 513.816C1121.36 481.211 1081.43 401.655 1055.3 344.271Z" fill="white" fill-opacity="0.11"/>
<path d="M13.9996 430.038C-48.1043 419.122 -72.3681 464.986 -76.7371 489.283C-78.8883 538.521 -41.3392 559.355 -22.2957 563.617C89.2761 580.3 319.41 614.236 347.37 616.516C382.32 619.366 406.517 614.837 439.675 574.196C466.201 541.683 442.513 488.098 427.353 465.369C384.189 389.969 295.619 235.517 286.658 220.915C275.456 202.664 231.097 98.2687 164.781 137.29C111.728 168.507 123.631 216.471 136.215 236.552C166.049 287.838 227.846 393.457 236.36 405.637C247.002 420.863 245.545 438.354 235.127 449.695C226.793 458.768 208.653 458.824 200.625 457.718C164.293 453.04 76.1034 440.954 13.9996 430.038Z" fill="white" fill-opacity="0.07"/>
</g>
<defs>
<clipPath id="clip0_1433_5207">
<rect width="1440" height="636" fill="white"/>
</clipPath>
</defs>
</svg>
