<svg width="919" height="531" viewBox="0 0 919 531" fill="none" xmlns="http://www.w3.org/2000/svg">
<path d="M430.035 14.4604V7.56396L497.148 0V31.3301L430.035 14.4604Z" fill="#F79A1F"/>
<path fill-rule="evenodd" clip-rule="evenodd" d="M523.328 320.767C556.67 322.781 590.882 326.216 625.823 331.294V94.8101L523.328 120.573V320.767ZM612.35 147.672H580.526V172.547H612.35V147.672ZM568.631 166.033H536.796V190.908H568.631V166.033ZM612.35 184.389H580.526V209.264H612.35V184.389ZM568.631 202.751H536.796V227.631H568.631V202.751ZM612.35 221.112H580.526V245.987H612.35V221.112ZM568.631 239.474H536.796V264.349H568.631V239.474Z" fill="#F79A1F"/>
<path fill-rule="evenodd" clip-rule="evenodd" d="M637.477 333.044C671.032 338.249 705.24 344.976 739.978 353.419V182.118L637.477 156.349V333.044ZM650.95 209.211H682.78V234.086H650.95V209.211ZM694.675 227.572H726.504V252.447H694.675V227.572ZM650.95 245.928H682.78V270.809H650.95V245.928ZM694.675 264.296H726.504V289.171H694.675V264.296ZM650.95 282.651H682.78V307.526H650.95V282.651ZM694.675 301.013H726.504V325.888H694.675V301.013Z" fill="#F79A1F"/>
<path fill-rule="evenodd" clip-rule="evenodd" d="M752.68 356.577C757.162 357.717 761.654 358.885 766.153 360.082V338.596H797.983V363.471H778.625C789.002 366.348 799.42 369.38 809.877 372.574V365.305H841.707V382.757C846.19 384.257 850.679 385.786 855.175 387.347V251.02L752.68 268.226V356.577ZM809.877 291.864H841.707V316.74H809.877V291.864ZM766.153 301.879H797.983V326.753H766.153V301.879ZM809.877 328.582H841.707V353.463H809.877V328.582Z" fill="#F79A1F"/>
<path d="M862.37 493.295C514.27 358.635 203.749 427.067 63.5703 488.957V489.194C41.0843 501.817 19.844 515.492 0 530.113C124.497 470.216 284.643 434.172 459.372 434.172C634.1 434.172 794.241 470.216 918.743 530.113C901.029 517.062 882.202 504.764 862.37 493.295Z" fill="#F79A1F"/>
<path fill-rule="evenodd" clip-rule="evenodd" d="M63.5703 384.341V288.714L166.066 305.92V352.724C161.521 353.861 157.03 355.016 152.592 356.189V339.567H120.762V364.442H123.157C118.319 365.878 113.555 367.333 108.868 368.804V366.282H77.0383V379.433C72.4591 381.058 67.9692 382.695 63.5703 384.341ZM108.868 329.558H77.0383V354.439H108.868V329.558Z" fill="#F79A1F"/>
<path fill-rule="evenodd" clip-rule="evenodd" d="M178.773 349.628C210.61 342.077 244.882 335.479 281.275 330.328V121.326L178.773 147.09V349.628ZM267.801 174.188H235.971V199.069H267.801V174.188ZM224.077 192.544H192.247V217.424H224.077V192.544ZM267.801 210.911H235.971V235.786H267.801V210.911ZM224.077 229.267H192.247V254.142H224.077V229.267ZM267.801 247.629H235.971V272.504H267.801V247.629ZM224.077 266.019H192.247V290.9H224.077V266.019ZM267.801 284.416H235.971V309.291H267.801V284.416ZM224.077 302.772H192.247V327.646H224.077V302.772Z" fill="#F79A1F"/>
<path fill-rule="evenodd" clip-rule="evenodd" d="M292.926 328.738C325.529 324.456 359.767 321.347 395.421 319.754V85.5514L292.926 59.7822V328.738ZM306.4 127.563H338.229V152.444H306.4V127.563ZM350.124 145.924H381.953V170.8H350.124V145.924ZM306.4 164.286H338.229V189.161H306.4V164.286ZM350.124 182.648H381.953V207.523H350.124V182.648ZM306.4 201.004H338.229V225.885H306.4V201.004ZM350.124 219.371H381.953V244.246H350.124V219.371Z" fill="#F79A1F"/>
<path fill-rule="evenodd" clip-rule="evenodd" d="M408.125 319.253V16.3584L510.62 42.1275V320.066C475.395 318.307 441.174 318.124 408.125 319.253ZM421.599 62.2828H453.428V87.1577H421.599V62.2828ZM465.317 80.6503H497.147V105.525H465.317V80.6503ZM421.599 99.006H453.428V123.881H421.599V99.006ZM465.317 117.368H497.147V142.243H465.317V117.368ZM421.599 135.729H453.428V160.604H421.599V135.729ZM465.317 154.091H497.147V178.966H465.317V154.091Z" fill="#F79A1F"/>
<path d="M77.0469 284.109V273.73L152.601 265.875V296.788L77.0469 284.109Z" fill="#F79A1F"/>
<path d="M659.387 147.543V154.445L726.5 171.315V139.979L659.387 147.543Z" fill="#F79A1F"/>
<path d="M259.355 119.423L192.242 136.293V104.962L259.355 112.526V119.423Z" fill="#F79A1F"/>
<path d="M766.156 259.095L841.71 246.41V236.042L766.156 228.182V259.095Z" fill="#F79A1F"/>
<path d="M603.91 92.9042L536.797 109.774V78.4378L603.91 86.0021V92.9042Z" fill="#F79A1F"/>
<path d="M314.844 50.9856V57.8824L381.957 74.7522V43.416L314.844 50.9856Z" fill="#F79A1F"/>
<path d="M294.207 354.195L300.875 398.626L290.052 400.25L287.307 381.959L270.471 384.485L273.216 402.777L262.394 404.401L255.726 359.97L266.548 358.346L269.16 375.751L285.996 373.225L283.384 355.82L294.207 354.195Z" fill="#F79A1F"/>
<path d="M331.317 387.194L314.648 389.011L312.836 397.191L301.447 398.433L312.739 352.008L325.336 350.635L346.365 393.537L334.849 394.792L331.317 387.194ZM327.602 379.101L320.285 363.353L316.595 380.301L327.602 379.101Z" fill="#F79A1F"/>
<path d="M385.952 360.179C386.132 362.775 385.701 365.2 384.659 367.454C383.615 369.664 381.904 371.515 379.527 373.006C377.149 374.496 374.13 375.368 370.47 375.621L363.702 376.09L364.816 392.18L353.898 392.936L350.795 348.115L368.48 346.89C372.056 346.643 375.121 347.051 377.675 348.114C380.229 349.177 382.198 350.752 383.583 352.837C384.968 354.922 385.757 357.37 385.952 360.179ZM369.039 366.996C371.124 366.851 372.644 366.254 373.598 365.204C374.551 364.155 374.966 362.736 374.843 360.948C374.719 359.161 374.112 357.813 373.023 356.904C371.934 355.996 370.346 355.614 368.26 355.759L362.323 356.17L363.101 367.407L369.039 366.996Z" fill="#F79A1F"/>
<path d="M426.011 358.695C426.101 361.296 425.587 363.705 424.469 365.921C423.349 368.095 421.576 369.886 419.149 371.294C416.722 372.701 413.674 373.469 410.007 373.597L403.227 373.833L403.788 389.951L392.851 390.332L391.289 345.431L409.006 344.814C412.588 344.69 415.637 345.203 418.153 346.353C420.669 347.504 422.583 349.145 423.896 351.276C425.208 353.408 425.913 355.881 426.011 358.695ZM408.873 364.927C410.963 364.854 412.502 364.31 413.491 363.293C414.48 362.277 414.944 360.873 414.882 359.083C414.819 357.292 414.259 355.924 413.202 354.979C412.144 354.033 410.571 353.597 408.481 353.67L402.533 353.877L402.925 365.134L408.873 364.927Z" fill="#F79A1F"/>
<path d="M440.383 352.917L440.417 362.005L455.073 361.949L455.105 370.397L440.449 370.453L440.486 380.309L457.062 380.246L457.095 389.014L429.576 389.118L429.406 344.19L456.926 344.086L456.959 352.854L440.383 352.917Z" fill="#F79A1F"/>
<path d="M504.279 390.215L493.341 389.863L475.938 361.577L475.046 389.274L464.108 388.922L465.553 344.018L476.492 344.37L493.891 372.784L494.786 344.958L505.725 345.311L504.279 390.215Z" fill="#F79A1F"/>
<path d="M529.323 346.774L526.519 391.615L515.596 390.931L518.4 346.091L529.323 346.774Z" fill="#F79A1F"/>
<path d="M573.488 395.574L562.589 394.578L546.883 365.316L544.361 392.913L533.462 391.917L537.551 347.175L548.449 348.171L564.144 377.561L566.677 349.837L577.576 350.833L573.488 395.574Z" fill="#F79A1F"/>
<path d="M612.704 369.598C612.096 368.011 611.082 366.736 609.66 365.773C608.286 364.773 606.584 364.139 604.553 363.87C601.043 363.405 598.076 364.196 595.653 366.242C593.235 368.246 591.772 371.172 591.262 375.021C590.719 379.124 591.393 382.484 593.284 385.102C595.223 387.683 598.138 389.231 602.03 389.747C604.695 390.1 607.026 389.72 609.024 388.607C611.064 387.5 612.676 385.734 613.858 383.308L600.09 381.484L601.149 373.49L624.751 376.616L623.414 386.704C622.252 389.305 620.544 391.639 618.29 393.708C616.079 395.782 613.398 397.342 610.246 398.388C607.095 399.434 603.658 399.711 599.936 399.218C595.537 398.635 591.73 397.162 588.513 394.8C585.345 392.4 583.015 389.359 581.523 385.675C580.073 381.997 579.64 377.958 580.222 373.559C580.805 369.16 582.275 365.374 584.632 362.2C587.037 358.989 590.079 356.659 593.757 355.209C597.441 353.717 601.482 353.263 605.881 353.845C611.21 354.551 615.523 356.435 618.819 359.497C622.157 362.565 624.116 366.461 624.695 371.186L612.704 369.598Z" fill="#F79A1F"/>
<path d="M641.107 405.507C637.868 404.955 635.055 403.936 632.669 402.448C630.282 400.959 628.486 399.052 627.28 396.726C626.117 394.408 625.74 391.79 626.149 388.874L637.632 390.828C637.521 392.497 637.875 393.855 638.692 394.903C639.516 395.909 640.706 396.544 642.263 396.809C643.861 397.081 645.184 396.938 646.231 396.381C647.285 395.781 647.923 394.829 648.145 393.525C648.331 392.432 648.106 391.463 647.471 390.619C646.877 389.782 646.073 389.04 645.058 388.391C644.086 387.749 642.661 386.966 640.784 386.04C638.074 384.67 635.89 383.39 634.232 382.199C632.573 381.008 631.239 379.439 630.229 377.493C629.218 375.546 628.949 373.185 629.422 370.409C630.123 366.287 632.164 363.323 635.544 361.518C638.931 359.671 643.022 359.155 647.817 359.971C652.697 360.801 656.429 362.648 659.014 365.512C661.607 368.334 662.654 371.844 662.156 376.044L650.484 374.058C650.643 372.614 650.307 371.409 649.476 370.446C648.651 369.44 647.482 368.808 645.968 368.55C644.664 368.328 643.552 368.507 642.631 369.086C641.717 369.623 641.149 370.543 640.927 371.847C640.684 373.277 641.167 374.507 642.377 375.535C643.587 376.563 645.544 377.783 648.246 379.195C650.942 380.65 653.098 381.969 654.714 383.152C656.372 384.344 657.71 385.891 658.728 387.796C659.746 389.7 660.029 391.977 659.578 394.627C659.149 397.151 658.106 399.332 656.452 401.171C654.839 403.018 652.709 404.343 650.062 405.148C647.415 405.952 644.43 406.072 641.107 405.507Z" fill="#F79A1F"/>
</svg>
